<?xml version="1.0" encoding="UTF-8" standalone="no"?>
<svg
   xmlns:dc="http://purl.org/dc/elements/1.1/"
   xmlns:cc="http://creativecommons.org/ns#"
   xmlns:rdf="http://www.w3.org/1999/02/22-rdf-syntax-ns#"
   xmlns:svg="http://www.w3.org/2000/svg"
   xmlns="http://www.w3.org/2000/svg"
   xmlns:sodipodi="http://sodipodi.sourceforge.net/DTD/sodipodi-0.dtd"
   xmlns:inkscape="http://www.inkscape.org/namespaces/inkscape"
   width="266.88962mm"
   height="99.999947mm"
   viewBox="0 0 266.88962 99.999947"
   version="1.1"
   id="svg183"
   sodipodi:docname="logo.svg"
   inkscape:version="1.0.1 (3bc2e813f5, 2020-09-07)">
  <defs
     id="defs177" />
  <sodipodi:namedview
     id="base"
     pagecolor="#ffffff"
     bordercolor="#666666"
     borderopacity="1.0"
     inkscape:pageopacity="0.0"
     inkscape:pageshadow="2"
     inkscape:zoom="0.88746146"
     inkscape:cx="330.4996"
     inkscape:cy="315.55996"
     inkscape:document-units="mm"
     inkscape:current-layer="layer1"
     inkscape:document-rotation="0"
     showgrid="false"
     inkscape:window-width="1465"
     inkscape:window-height="1040"
     inkscape:window-x="26"
     inkscape:window-y="0"
     inkscape:window-maximized="0"
     inkscape:snap-page="false" />
  <metadata
     id="metadata180">
    <rdf:RDF>
      <cc:Work
         rdf:about="">
        <dc:format>image/svg+xml</dc:format>
        <dc:type
           rdf:resource="http://purl.org/dc/dcmitype/StillImage" />
        <dc:title></dc:title>
      </cc:Work>
    </rdf:RDF>
  </metadata>
  <g
     inkscape:label="Warstwa 1"
     inkscape:groupmode="layer"
     id="layer1"
     transform="translate(-0.17926865,-0.20207938)">
    <path
       style="display:inline;opacity:1;fill:#ff0000;fill-opacity:1;stroke:#000000;stroke-width:0.174708;stroke-miterlimit:4;stroke-dasharray:none;stroke-opacity:1"
       d="m 1.3913727,0.28959263 c -0.54903005,0.001 -0.90895005,0.008 -1.12475005,0.0305 V 100.0838 c 0.64816,0.11057 5.64740005,-0.114383 19.45402035,-0.114383 h 19.089531 l 4.344969,-4.335751 4.345742,-4.33575 V 50.289146 9.2806721 l -4.407512,-4.3803595 -4.567629,-4.48718997 -1.956691,-0.008 c -1.16441,-0.061 -9.691169,-0.0907 -18.94846,-0.061 -9.5882303,0.0305 -14.2031403,-0.061 -16.2292203,-0.0534 z M 22.468083,14.140212 c 4.20772,-0.003 8.915671,0.0763 9.05903,0.21809 0.160131,0.16242 0.20588,8.371514 0.20588,35.885394 0,32.36976 0,35.6853 -0.27451,35.78176 -0.297389,0.11515 -14.15283,0.0961 -15.09228,-0.0229 v 0 l -0.57191,-0.0686 v -28.2306 c 0,-15.52685 0,-28.41934 0,-28.65 0,-0.23029 -0.0763,-0.56428 -0.1525,-0.74119 -0.16014,-0.29588 -0.49566,-0.32561 -4.23975,-0.36909 l -4.0674003,-0.0458 -0.0763,-3.35526 c -0.0763,-2.733495 0,-3.398885 0.20588,-3.590435 0.13726,-0.12964 0.86853,-0.72747 1.62345,-1.32935 0.75492,-0.60164 2.5156303,-2.00861 3.9126103,-3.12627 1.39699,-1.11782 2.72153,-2.10318 2.94495,-2.1898 0.28214,-0.11057 3.25377,-0.16319 6.52661,-0.16547 z"
       id="path1505"
       inkscape:connector-curvature="0"
       sodipodi:nodetypes="sccscccccccccsccscccccccccccsccsc" />
    <path
       style="display:inline;opacity:1;fill:#ffffff;fill-opacity:1;stroke:#000000;stroke-width:0.352557;stroke-miterlimit:4;stroke-dasharray:none;stroke-opacity:1"
       d="m 71.717753,0.41251263 c -6.039351,0 -7.76423,0.10295 -8.077629,0.4804 -0.289769,0.35077997 -0.37365,9.43892937 -0.30502,33.66464337 l 0.0915,33.18454 8.041781,0.0953 8.041791,0.0953 1.631849,-1.50457 c 0.898282,-0.82744 1.762241,-1.82454 1.920851,-2.21565 0.160129,-0.39118 0.297389,-13.96332 0.31264,-30.16059 V 4.6021626 l -1.997093,-2.09433 v -8e-5 L 79.380554,0.41335263 Z m 4.251952,7.03888997 v 26.6992634 26.69926 h -2.829812 -2.829801 l 0.0915,-26.59601 0.0915,-26.5959334 2.739059,-0.10295 z"
       id="path858"
       inkscape:connector-curvature="0" />
    <path
       style="display:inline;opacity:1;fill:#ffffff;fill-opacity:1;stroke:#000000;stroke-width:0.352629;stroke-miterlimit:4;stroke-dasharray:none;stroke-opacity:1"
       d="m 110.38407,61.328036 c -0.16014,-0.15937 -2.38295,-0.36831 -4.94358,-0.46591 l -4.65609,-0.17691 v -11.48902 -11.48903 l 3.18133,-0.0885 c 5.1182,-0.14183 4.81624,0.0968 4.69728,-3.72191 l -0.10676,-3.26001 -3.88821,-0.17615 -3.88897,-0.17691 V 18.971462 7.6592026 l 4.6561,-0.17615 c 2.56062,-0.0976 4.78342,-0.30502 4.93899,-0.46134 0.47278,-0.4743 0.58715,-5.03737 0.1525,-5.85588 -0.39652,-0.73432997 -0.6024,-0.75338997 -8.27435,-0.75338997 -5.650466,0 -7.990705,0.11972 -8.294966,0.42397 -0.32789,0.32407997 -0.427021,8.17927947 -0.427021,33.20094337 0,18.02722 0.0991,33.02829 0.21351,33.33583 0.18301,0.48726 1.252861,0.55894 8.290377,0.55894 7.31128,0 8.11118,-0.061 8.45586,-0.61842 0.42701,-0.69316 0.33552,-5.53668 -0.11438,-5.9859 z"
       id="path856"
       inkscape:connector-curvature="0" />
    <path
       style="display:inline;opacity:1;fill:#ffffff;fill-opacity:1;stroke:#000000;stroke-width:0.354473;stroke-miterlimit:4;stroke-dasharray:none;stroke-opacity:1"
       d="m 125.58386,0.41350263 h -9.77276 l -0.10675,3.16806997 c -0.0763,2.29487 0,3.24844 0.35839,3.45936 0.25164,0.16013 1.69742,0.29358 3.21107,0.29663 l 2.75201,0.006 0.0915,30.2940334 0.0915,30.29404 h 3.37579 3.37579 l 0.0915,-30.29404 0.0915,-30.2940334 h 2.63383 c 3.91261,0 3.80127,0.11133 3.68233,-3.68538 l -0.10677,-3.24409097 z"
       id="path854"
       inkscape:connector-curvature="0" />
    <path
       style="display:inline;opacity:1;fill:#ffffff;fill-opacity:1;stroke:#000000;stroke-width:0.350676;stroke-miterlimit:4;stroke-dasharray:none;stroke-opacity:1"
       d="m 149.15715,0.41190263 c -1.98643,0.008 -4.12156,0.17462 -4.47843,0.44609 -0.48802,0.36906997 -0.83803,3.50785997 -2.20299,19.59882937 -0.89446,10.537754 -2.15113,25.319364 -2.79319,32.848034 -0.64054,7.52882 -1.08816,13.89622 -0.99055,14.14999 0.22877,0.59098 6.26736,0.65808 6.62804,0.0763 0.12963,-0.21275 0.61003,-4.65357 1.06984,-9.86739 0.45752,-5.21374 0.92039,-9.62697 1.03249,-9.80723 0.25927,-0.4194 2.86868,-0.42931 3.12643,-0.008 0.10674,0.17309 0.53377,4.56352 0.95165,9.7556 0.4194,5.192 0.91048,9.6378 1.09882,9.87945 0.47279,0.60926 6.11179,0.60926 6.33828,0 0.0915,-0.24173 0.10674,-0.835 0.0762,-1.31844 -0.0762,-0.48345 -0.28977,-3.01427 -0.50328,-5.62445 -0.36602,-4.59433 -1.37259,-16.31524 -2.11226,-24.60866 -0.19826,-2.22359 -0.91123,-10.52892 -1.58303,-18.456403 -1.45723,-17.18255937 -1.36954,-16.56107937 -2.37534,-16.83078937 -0.6024,-0.16166 -1.89262,-0.23105 -3.25148,-0.22572 z m -0.1754,29.88814337 c 0.1449,0 0.36603,1.54248 0.49567,3.42764 0.12963,1.88516 0.32788,4.09997 0.44227,4.92176 0.20588,1.49161 0.20588,1.49398 -0.92878,1.49398 -1.13161,0 -1.1339,-0.003 -0.93412,-1.49398 0.11439,-0.82179 0.30502,-3.0366 0.43465,-4.92176 0.12963,-1.88516 0.35078,-3.42764 0.49566,-3.42764 z"
       id="path850"
       inkscape:connector-curvature="0" />
    <path
       style="display:inline;opacity:1;fill:#ffffff;fill-opacity:1;stroke:#000000;stroke-width:0.353843;stroke-miterlimit:4;stroke-dasharray:none;stroke-opacity:1"
       d="m 176.05208,61.316146 c -0.25164,-0.20513 -1.16516,-0.42474 -2.0398,-0.48727 l -1.58914,-0.11286 -0.10676,-24.83072 c -0.0762,-13.656934 0,-25.668834 0.11439,-26.6930039 l 0.22113,-1.8622795 h 1.52738 c 2.11605,0 2.37227,-0.44991 2.24949,-3.95639 l -0.10674,-2.96072997 h -7.4493 -7.4493 l -0.10676,2.96072997 c -0.122,3.51571 0.12964,3.95639 2.27543,3.95639 h 1.55254 v 26.7816834 26.78177 h -1.55255 c -2.14505,0 -2.39897,0.44075 -2.27543,3.95623 l 0.10674,2.96088 7.08482,0.0961 c 3.89662,0.0534 7.28841,0.0229 7.53777,-0.0778 0.63291,-0.24173 0.63291,-5.99138 0.002,-6.5135 z"
       id="path848"
       inkscape:connector-curvature="0" />
    <path
       style="display:inline;opacity:1;fill:#ffffff;fill-opacity:1;stroke:#000000;stroke-width:0.352756;stroke-miterlimit:4;stroke-dasharray:none;stroke-opacity:1"
       d="m 196.32355,61.291816 c -0.24402,-0.15708 -2.113,-0.36602 -4.1551,-0.46286 l -3.71359,-0.17691 -0.17538,-30.05903 -0.17539,-30.05887337 -2.9518,-0.10371 c -1.87205,-0.0686 -3.1333,0.0457 -3.44746,0.30883 -0.4194,0.34771997 -0.49566,5.51593997 -0.49566,33.36260337 0,25.15686 0.0991,33.05117 0.42703,33.37517 0.61766,0.61843 14.65228,0.60165 14.90162,-0.0153 0.39654,-0.97904 0.22878,-5.88455 -0.20588,-6.16776 z"
       id="path846"
       inkscape:connector-curvature="0" />
    <path
       style="display:inline;opacity:1;fill:#ff0000;fill-opacity:1;stroke:#000000;stroke-width:0.351398;stroke-miterlimit:4;stroke-dasharray:none;stroke-opacity:1"
       d="m 208.96349,0.41213263 c -4.10478,-0.006 -3.97591,0.2158 -5.63368,1.87417997 l -1.8118,1.81165 v 29.9931534 29.99306 l 1.9422,1.91833 1.94296,1.91841 6.00351,0.006 6.0035,0.006 1.91779,-1.99459 1.91781,-1.99458 V 34.195136 4.4465426 l -1.15373,-1.45822 v 0.002 c -1.93991,-2.45149997 -2.1153,-2.51074997 -7.53622,-2.55199997 -1.47171,-0.008 -2.64527,-0.0229 -3.59234,-0.0229 z m 2.2922,7.10797997 c 1.4862,0 2.31585,0.15098 2.42337,0.43999 0.0763,0.15937 0.122,5.3875194 0.17538,12.4559194 0.10676,14.770014 0.17539,37.577184 0.0763,38.976144 h 0.002 l -0.10676,1.32111 h -2.40735 c -1.86976,0 -2.45462,-0.1243 -2.62086,-0.55742 -0.27451,-0.72518 -0.27451,-50.8040339 0,-51.8436134 0.19064,-0.71756 0.42702,-0.79251 2.47217,-0.79251 z"
       id="path842"
       inkscape:connector-curvature="0" />
    <path
       style="display:inline;opacity:1;fill:#ff0000;fill-opacity:1;stroke:#000000;stroke-width:0.349295;stroke-miterlimit:4;stroke-dasharray:none;stroke-opacity:1"
       d="m 244.56361,1.4697026 c -0.40414,-0.80249997 -0.66341,-0.88385997 -3.10813,-0.97696997 -4.02547,-0.15327 -3.79365,-0.82324002 -3.79365,10.98169937 0,5.47499 -0.12964,9.95463 -0.2974,9.95463 -0.37364,0 -0.82278,-2.08144 -2.16181,-9.97964 -1.35808,-8.0092994 -1.78054,-10.0485694 -2.19765,-10.59241937 -0.4499,-0.58487 -5.90056,-0.59936 -6.48238,-0.0153 -0.66342,0.66493997 -0.60241,65.37762337 0.0762,66.28878337 0.38127,0.52082 1.00503,0.68096 2.92893,0.7534 3.89736,0.14564 3.72121,0.57953 3.62437,-8.92954 -0.0839,-8.41437 0.22114,-14.40606 0.67104,-13.17471 0.13726,0.37899 0.44228,1.87037 0.67867,3.31478 0.23638,1.44441 0.70916,4.12316 1.06069,5.95273 0.35078,1.82963 0.89828,4.90232 1.21931,6.8282 1.01343,6.08289 0.85024,5.81218 3.59006,5.97285 2.79243,0.16395 4.04377,-0.20207 4.34192,-1.26796 0.12964,-0.46896 0.25164,-15.11348 0.26689,-32.54287 0,-24.8560239 -0.0763,-31.8786734 -0.41177,-32.5653434 z"
       id="path840"
       inkscape:connector-curvature="0" />
    <path
       style="display:inline;opacity:1;fill:#ff0000;fill-opacity:1;stroke:#000000;stroke-width:0.351467;stroke-miterlimit:4;stroke-dasharray:none;stroke-opacity:1"
       d="m 266.21223,61.027136 c -0.37365,-0.20055 -2.59722,-0.36449 -4.93747,-0.36449 h -4.25652 l 0.0915,-11.5392 0.0915,-11.5392 3.62514,-0.10065 c 3.57862,-0.0991 3.63047,-0.11286 3.998,-1.05697 0.2059,-0.52615 0.28978,-1.97765 0.19828,-3.22571 -0.2364,-3.04186 -0.61004,-3.30815 -4.37472,-3.0883 -2.07335,0.12124 -3.00061,0.0457 -3.26445,-0.27376 -0.24401,-0.29205 -0.33552,-4.14862 -0.27452,-11.323394 l 0.0915,-10.8802794 3.40247,-0.10066 c 4.17797,-0.12353 4.43266,-0.32256 3.81272,-2.97506 -0.23639,-1.02151 -0.64053,-2.37258 -0.8998,-3.00245 l -0.46515,-1.14502997 h -6.34818 c -5.91505,0 -6.37258,0.0457 -6.71267,0.68170997 -0.24402,0.456 -0.36602,11.4122394 -0.36602,33.0527834 0,27.39889 0.0762,32.47629 0.50328,33.05521 0.46515,0.63749 1.01113,0.68705 8.01578,0.72899 4.13383,0.0229 7.79321,-0.0999 8.13262,-0.2768 0.51088,-0.26766 0.61764,-0.82027 0.61764,-3.2916 0,-2.57587 -0.0915,-3.01853 -0.67866,-3.33483 z"
       id="path866"
       inkscape:connector-curvature="0" />
  </g>
</svg>
